<svg version="1.1" id="Layer_1" xmlns:x="ns_extend;" xmlns:i="ns_ai;" xmlns:graph="ns_graphs;" xmlns="http://www.w3.org/2000/svg" xmlns:xlink="http://www.w3.org/1999/xlink" x="0px" y="0px" viewBox="0 0 31.7 52.3" style="enable-background:new 0 0 31.7 52.3;" xml:space="preserve">
 <style type="text/css">
  .st0{fill:#13151B;}
 </style>
 <metadata>
  <sfw xmlns="ns_sfw;">
   <slices>
   </slices>
   <sliceSourceBounds bottomLeftOrigin="true" height="52.3" width="31.7" x="118.3" y="0.8">
   </sliceSourceBounds>
  </sfw>
 </metadata>
 <path class="st0" d="M2.7,51.8c0.2-0.3,1.6-2,3.2-3.8c1.6-1.8,3.5-4.2,4.4-5.3c0.9-1.1,2.3-2.8,3.1-3.7c2.1-2.4,2.6-3.2,2.3-3.5
	c-0.4-0.4-1.5-0.6-4.5-0.6c-2.7,0-9.6,0.6-10,0.8c-0.1,0.1-0.1,0,0-0.1c0.4-0.7,3.8-2.5,4.6-2.5C5.9,33.1,6,33.1,6,33
	c0-0.1-0.2-0.2-0.4-0.2c-0.2,0-1.1-0.2-1.9-0.5c-2.2-0.7-4.7-2-3.3-1.7c3.8,0.8,9.6,0.9,12.6,0.3c3.2-0.7,4.1-1.3,5.2-3.8
	c0.5-1.1,0.6-1.3,0.5-3c0-4.9-2.8-14-6.4-21.3c-0.7-1.4-1.2-2.6-1.2-2.7c0.3-0.3,3.2,1.9,5.8,4.5c4.8,4.9,8.8,11.9,10.7,18.6
	c0.4,1.6,0.4,1.8,0.3,2.7c-0.2,0.8-0.7,2.1-1.2,3.1c0,0.1,0.6,0.2,1.3,0.3c1.5,0.2,2.1,0.5,2.9,1.2c0.9,0.7,1,1,0.4,1.6
	c-0.9,0.8-2.8,1.6-5,2.1c-0.6,0.1-0.7,0.2-1,1c-0.6,1.6-2.3,3.8-4.6,6.2c-2.7,2.7-8.4,7.5-10.3,8.7c-2.4,1.4-5.4,2.4-7.4,2.4H2.4
	L2.7,51.8z">
 </path>
</svg>